<mxfile host="app.diagrams.net" modified="2023-05-15T05:34:10.248Z" agent="Mozilla/5.0 (X11; Linux x86_64) AppleWebKit/537.36 (KHTML, like Gecko) Chrome/110.0.0.0 Safari/537.36" etag="UsGdFdAJ8lVjIxHiLJff" version="21.3.0" type="google">
  <diagram name="Page-1" id="YYjxtV_HAgpjrGexqN2E">
    <mxGraphModel grid="0" page="0" gridSize="10" guides="1" tooltips="1" connect="1" arrows="1" fold="1" pageScale="1" pageWidth="850" pageHeight="1100" math="0" shadow="0">
      <root>
        <mxCell id="0" />
        <mxCell id="1" parent="0" />
        <mxCell id="Pi9Cl8plA-pHlmu9Kuvn-1" style="edgeStyle=none;curved=1;rounded=0;orthogonalLoop=1;jettySize=auto;html=1;fontSize=12;startSize=8;endSize=8;entryX=0.5;entryY=0;entryDx=0;entryDy=0;" edge="1" parent="1" source="Pi9Cl8plA-pHlmu9Kuvn-2" target="Pi9Cl8plA-pHlmu9Kuvn-4">
          <mxGeometry relative="1" as="geometry">
            <mxPoint x="250" y="910" as="targetPoint" />
          </mxGeometry>
        </mxCell>
        <mxCell id="Pi9Cl8plA-pHlmu9Kuvn-2" value="&lt;b&gt;Stack Overflow Question/Answers Dataset&lt;/b&gt;" style="shape=datastore;whiteSpace=wrap;html=1;fillColor=#f8cecc;strokeColor=#b85450;" vertex="1" parent="1">
          <mxGeometry x="190" y="770" width="120" height="90" as="geometry" />
        </mxCell>
        <mxCell id="Pi9Cl8plA-pHlmu9Kuvn-3" style="edgeStyle=none;curved=1;rounded=0;orthogonalLoop=1;jettySize=auto;html=1;entryX=0.5;entryY=0;entryDx=0;entryDy=0;fontSize=12;startSize=8;endSize=8;" edge="1" parent="1" source="Pi9Cl8plA-pHlmu9Kuvn-4" target="Pi9Cl8plA-pHlmu9Kuvn-13">
          <mxGeometry relative="1" as="geometry">
            <mxPoint x="250" y="930" as="targetPoint" />
          </mxGeometry>
        </mxCell>
        <mxCell id="Pi9Cl8plA-pHlmu9Kuvn-4" value="(1) Collect questions" style="rounded=0;whiteSpace=wrap;html=1;fillColor=#e1d5e7;strokeColor=#9673a6;" vertex="1" parent="1">
          <mxGeometry x="190" y="880" width="120" height="30" as="geometry" />
        </mxCell>
        <mxCell id="Pi9Cl8plA-pHlmu9Kuvn-5" style="edgeStyle=none;curved=1;rounded=0;orthogonalLoop=1;jettySize=auto;html=1;fontSize=12;startSize=8;endSize=8;entryX=0.5;entryY=0;entryDx=0;entryDy=0;exitX=0.5;exitY=1;exitDx=0;exitDy=0;" edge="1" parent="1" source="Pi9Cl8plA-pHlmu9Kuvn-13" target="Pi9Cl8plA-pHlmu9Kuvn-8">
          <mxGeometry relative="1" as="geometry">
            <mxPoint x="250" y="980" as="sourcePoint" />
            <mxPoint x="250" y="1010" as="targetPoint" />
          </mxGeometry>
        </mxCell>
        <mxCell id="Pi9Cl8plA-pHlmu9Kuvn-6" style="edgeStyle=none;curved=1;rounded=0;orthogonalLoop=1;jettySize=auto;html=1;exitX=1;exitY=1;exitDx=0;exitDy=0;fontSize=12;startSize=8;endSize=8;" edge="1" parent="1">
          <mxGeometry relative="1" as="geometry">
            <mxPoint x="310" y="980" as="sourcePoint" />
            <mxPoint x="310" y="980" as="targetPoint" />
          </mxGeometry>
        </mxCell>
        <mxCell id="Pi9Cl8plA-pHlmu9Kuvn-7" style="edgeStyle=none;curved=1;rounded=0;orthogonalLoop=1;jettySize=auto;html=1;fontSize=12;startSize=8;endSize=8;" edge="1" parent="1" source="Pi9Cl8plA-pHlmu9Kuvn-8" target="Pi9Cl8plA-pHlmu9Kuvn-15">
          <mxGeometry relative="1" as="geometry" />
        </mxCell>
        <mxCell id="Pi9Cl8plA-pHlmu9Kuvn-8" value="(3) Create samples included:&lt;br&gt;questions, chatGPT answers, human answers" style="rounded=0;whiteSpace=wrap;html=1;fillColor=#e1d5e7;strokeColor=#9673a6;" vertex="1" parent="1">
          <mxGeometry x="171.5" y="1002" width="157" height="57" as="geometry" />
        </mxCell>
        <mxCell id="Pi9Cl8plA-pHlmu9Kuvn-9" value="" style="endArrow=none;html=1;rounded=0;fontSize=12;startSize=8;endSize=8;curved=1;" edge="1" parent="1">
          <mxGeometry width="50" height="50" relative="1" as="geometry">
            <mxPoint x="400" y="1030" as="sourcePoint" />
            <mxPoint x="400" y="820" as="targetPoint" />
          </mxGeometry>
        </mxCell>
        <mxCell id="Pi9Cl8plA-pHlmu9Kuvn-10" value="" style="endArrow=classic;html=1;rounded=0;fontSize=12;startSize=8;endSize=8;curved=1;entryX=1;entryY=0.5;entryDx=0;entryDy=0;" edge="1" parent="1" target="Pi9Cl8plA-pHlmu9Kuvn-8">
          <mxGeometry width="50" height="50" relative="1" as="geometry">
            <mxPoint x="400" y="1030" as="sourcePoint" />
            <mxPoint x="340" y="1060" as="targetPoint" />
          </mxGeometry>
        </mxCell>
        <mxCell id="Pi9Cl8plA-pHlmu9Kuvn-11" value="" style="endArrow=none;html=1;rounded=0;fontSize=12;startSize=8;endSize=8;curved=1;" edge="1" parent="1">
          <mxGeometry width="50" height="50" relative="1" as="geometry">
            <mxPoint x="310" y="820" as="sourcePoint" />
            <mxPoint x="400" y="820" as="targetPoint" />
          </mxGeometry>
        </mxCell>
        <mxCell id="Pi9Cl8plA-pHlmu9Kuvn-12" value="human answers" style="text;html=1;strokeColor=none;fillColor=none;align=center;verticalAlign=middle;whiteSpace=wrap;rounded=0;fontSize=12;" vertex="1" parent="1">
          <mxGeometry x="385" y="910" width="80" height="40" as="geometry" />
        </mxCell>
        <mxCell id="Pi9Cl8plA-pHlmu9Kuvn-13" value="(2) Extract GPT&#39;s answers" style="shape=parallelogram;perimeter=parallelogramPerimeter;whiteSpace=wrap;html=1;fixedSize=1;fontSize=12;fillColor=#fff2cc;strokeColor=#d6b656;" vertex="1" parent="1">
          <mxGeometry x="188" y="939" width="124" height="40" as="geometry" />
        </mxCell>
        <mxCell id="Pi9Cl8plA-pHlmu9Kuvn-14" style="edgeStyle=none;curved=1;rounded=0;orthogonalLoop=1;jettySize=auto;html=1;fontSize=12;startSize=8;endSize=8;entryX=0.5;entryY=0;entryDx=0;entryDy=0;" edge="1" parent="1" source="Pi9Cl8plA-pHlmu9Kuvn-15">
          <mxGeometry relative="1" as="geometry">
            <mxPoint x="252.5" y="1160" as="targetPoint" />
          </mxGeometry>
        </mxCell>
        <mxCell id="Pi9Cl8plA-pHlmu9Kuvn-15" value="(4.2) Comparison using OpenAI Evals" style="shape=parallelogram;perimeter=parallelogramPerimeter;whiteSpace=wrap;html=1;fixedSize=1;fontSize=12;fillColor=#fff2cc;strokeColor=#d6b656;" vertex="1" parent="1">
          <mxGeometry x="174" y="1080" width="157" height="50" as="geometry" />
        </mxCell>
        <mxCell id="Pi9Cl8plA-pHlmu9Kuvn-16" style="edgeStyle=none;curved=1;rounded=0;orthogonalLoop=1;jettySize=auto;html=1;fontSize=12;startSize=8;endSize=8;" edge="1" parent="1" source="Pi9Cl8plA-pHlmu9Kuvn-17" target="Pi9Cl8plA-pHlmu9Kuvn-15">
          <mxGeometry relative="1" as="geometry" />
        </mxCell>
        <mxCell id="Pi9Cl8plA-pHlmu9Kuvn-17" value="(4.1) Select test and custom template" style="rounded=0;whiteSpace=wrap;html=1;fillColor=#d5e8d4;strokeColor=#82b366;" vertex="1" parent="1">
          <mxGeometry x="20" y="1080" width="110" height="50" as="geometry" />
        </mxCell>
        <mxCell id="Pi9Cl8plA-pHlmu9Kuvn-18" style="edgeStyle=none;curved=1;rounded=0;orthogonalLoop=1;jettySize=auto;html=1;fontSize=12;startSize=8;endSize=8;entryX=0;entryY=0.5;entryDx=0;entryDy=0;" edge="1" parent="1" target="Pi9Cl8plA-pHlmu9Kuvn-21">
          <mxGeometry relative="1" as="geometry">
            <mxPoint x="350" y="1175" as="targetPoint" />
            <mxPoint x="312.5" y="1175" as="sourcePoint" />
          </mxGeometry>
        </mxCell>
        <mxCell id="Pi9Cl8plA-pHlmu9Kuvn-28" style="edgeStyle=none;curved=1;rounded=0;orthogonalLoop=1;jettySize=auto;html=1;fontSize=12;startSize=8;endSize=8;" edge="1" parent="1" target="Pi9Cl8plA-pHlmu9Kuvn-29">
          <mxGeometry relative="1" as="geometry">
            <mxPoint x="250" y="1222.0494571261936" as="targetPoint" />
            <mxPoint x="252.5" y="1190" as="sourcePoint" />
          </mxGeometry>
        </mxCell>
        <mxCell id="Pi9Cl8plA-pHlmu9Kuvn-21" value="&lt;b&gt;Results dataset&lt;/b&gt;" style="shape=datastore;whiteSpace=wrap;html=1;fillColor=#f8cecc;strokeColor=#b85450;" vertex="1" parent="1">
          <mxGeometry x="350" y="1145" width="120" height="60" as="geometry" />
        </mxCell>
        <mxCell id="Pi9Cl8plA-pHlmu9Kuvn-26" value="Descriptive statistics" style="rounded=0;whiteSpace=wrap;html=1;fontSize=12;" vertex="1" parent="1">
          <mxGeometry x="190" y="1344" width="120" height="60" as="geometry" />
        </mxCell>
        <mxCell id="Pi9Cl8plA-pHlmu9Kuvn-30" style="edgeStyle=none;curved=1;rounded=0;orthogonalLoop=1;jettySize=auto;html=1;fontSize=12;startSize=8;endSize=8;" edge="1" parent="1" target="Pi9Cl8plA-pHlmu9Kuvn-31">
          <mxGeometry relative="1" as="geometry">
            <mxPoint x="252.5" y="1304.5502438015408" as="targetPoint" />
            <mxPoint x="250.92519685039372" y="1259" as="sourcePoint" />
          </mxGeometry>
        </mxCell>
        <mxCell id="Pi9Cl8plA-pHlmu9Kuvn-29" value="(6) Case analysis" style="rounded=0;whiteSpace=wrap;html=1;fontSize=12;fillColor=#d5e8d4;strokeColor=#82b366;" vertex="1" parent="1">
          <mxGeometry x="192.5" y="1223" width="120" height="36" as="geometry" />
        </mxCell>
        <mxCell id="Pi9Cl8plA-pHlmu9Kuvn-32" style="edgeStyle=none;curved=1;rounded=0;orthogonalLoop=1;jettySize=auto;html=1;entryX=0.5;entryY=0;entryDx=0;entryDy=0;fontSize=12;startSize=8;endSize=8;" edge="1" parent="1" source="Pi9Cl8plA-pHlmu9Kuvn-31" target="Pi9Cl8plA-pHlmu9Kuvn-26">
          <mxGeometry relative="1" as="geometry" />
        </mxCell>
        <mxCell id="Pi9Cl8plA-pHlmu9Kuvn-31" value="(7) Human evaluation" style="rounded=0;whiteSpace=wrap;html=1;fontSize=12;fillColor=#d5e8d4;strokeColor=#82b366;" vertex="1" parent="1">
          <mxGeometry x="191" y="1285" width="119" height="35" as="geometry" />
        </mxCell>
        <mxCell id="b2x16mpWr5jk-g2mSKn--1" value="(5) Process results" style="rounded=0;whiteSpace=wrap;html=1;fillColor=#e1d5e7;strokeColor=#9673a6;" vertex="1" parent="1">
          <mxGeometry x="192.5" y="1160" width="120" height="30" as="geometry" />
        </mxCell>
      </root>
    </mxGraphModel>
  </diagram>
</mxfile>
